PathFileType	4	(X/Y/Z)	s01c0101.trc
DataRate	CameraRate	NumFrames	NumMarkers	Units	OrigDataRate	OrigDataStartFrame	OrigNumFrames
200	200	6	47	mm	200	1000	2000
Frame#	Time	racr			lacr			c7			jug			rlel			rdr			llel			ldr			s2			lic			ric			lasi			rasi			rpsi			lpsi			rgt			lgt			rth1			rth2			rth3			rth4			rlfc			rsh1			rsh2			rsh3			rsh4			rlmal			rmmal			rcal			rtoe			rmt5			lth1			lth2			lth4			lth3			llfc			lsh1			lsh2			lsh3			lsh4			llmal			lcal			ltoe			lmt5			SBIKE			LBIKE			RBIKE			
		X1	Y1	Z1	X2	Y2	Z2	X3	Y3	Z3	X4	Y4	Z4	X5	Y5	Z5	X6	Y6	Z6	X7	Y7	Z7	X8	Y8	Z8	X9	Y9	Z9	X10	Y10	Z10	X11	Y11	Z11	X12	Y12	Z12	X13	Y13	Z13	X14	Y14	Z14	X15	Y15	Z15	X16	Y16	Z16	X17	Y17	Z17	X18	Y18	Z18	X19	Y19	Z19	X20	Y20	Z20	X21	Y21	Z21	X22	Y22	Z22	X23	Y23	Z23	X24	Y24	Z24	X25	Y25	Z25	X26	Y26	Z26	X27	Y27	Z27	X28	Y28	Z28	X29	Y29	Z29	X30	Y30	Z30	X31	Y31	Z31	X32	Y32	Z32	X33	Y33	Z33	X34	Y34	Z34	X35	Y35	Z35	X36	Y36	Z36	X37	Y37	Z37	X38	Y38	Z38	X39	Y39	Z39	X40	Y40	Z40	X41	Y41	Z41	X42	Y42	Z42	X43	Y43	Z43	X44	Y44	Z44	X45	Y45	Z45	X46	Y46	Z46	X47	Y47	Z47	
1000	5.0000	507.285675	1325.635864	-114.824829	515.781189	1314.458984	-418.816589	466.266693	1391.687378	-259.784210	465.486725	1229.596802	-261.515747	567.869141	1064.250488	-5.733927	724.113037	852.504150	-53.254707	513.037903	1037.915771	-534.754395	702.379883	882.253174	-438.383728	-62.912239	1174.114136	-220.302887	92.472588	1198.657593	-408.230194	112.772560	1172.187622	-85.289230	93.266006	1141.226685	-389.615479	135.041809	1128.645996	-117.057655	-28.241570	1212.067017	-169.168076	-42.672775	1222.703613	-273.868530	67.078079	1056.125854	-52.692398	40.123936	1067.804077	-432.140717	164.579971	968.227905	-50.623966	228.885040	916.372314	-55.918396	294.021179	854.327820	-68.878387	263.387787	956.289185	-71.673355	343.976837	757.678467	-93.604187	268.579712	670.105042	-64.295311	223.164093	598.788574	-69.100708	170.321930	527.925476	-76.484070	265.038361	571.498108	-103.695808	94.498413	442.617401	-91.096405	134.074020	427.409027	-169.488525	57.951275	464.210571	-147.527634	175.318161	218.894043	-134.966599	98.255135	294.281982	-66.043083	133.463577	972.568481	-444.055298	214.703049	941.880981	-437.946777	236.893951	991.173706	-431.467651	289.894897	901.818848	-425.085449	372.676575	824.658630	-406.490234	327.403168	716.336060	-436.763336	313.444031	630.788086	-432.924469	296.479401	547.101746	-422.351257	368.432129	623.375488	-406.020569	271.697754	422.239624	-409.553253	224.044556	380.509918	-368.581421	500.216095	389.884827	-370.846527	400.324158	354.262817	-439.257843	-223.023560	893.726501	-248.252518	-12.053485	84.320107	-453.405396	-20.134785	80.605614	-53.430016	
1001	5.0050	507.427765	1325.423706	-115.655777	516.316040	1314.047363	-418.847290	466.335602	1391.399658	-260.374329	465.693298	1229.276001	-261.693787	567.321167	1064.077637	-5.450216	723.976379	852.671387	-53.168392	513.090698	1037.839233	-535.336365	702.405823	882.027893	-438.534973	-63.054844	1173.260742	-221.282623	92.544006	1195.828369	-409.323853	112.564018	1172.469971	-86.416023	93.713303	1139.982300	-390.941559	135.095184	1129.171021	-117.839203	-28.552671	1211.828613	-170.442566	-42.717148	1221.358521	-275.205566	68.001167	1057.381470	-52.826454	40.365440	1065.047119	-432.298798	167.521027	971.432434	-50.307026	232.883957	920.864075	-56.004059	298.896271	860.225037	-69.065872	266.270050	961.436340	-72.849106	349.752075	764.473755	-94.987579	273.293854	677.681641	-64.636627	226.822449	607.064026	-69.460976	172.974197	536.972595	-76.657829	268.134399	579.201843	-104.294006	95.353416	453.154114	-91.167831	133.854660	437.184143	-170.022156	58.616898	475.109467	-147.665054	173.452667	228.614410	-134.997635	97.343307	304.858643	-66.056702	132.201630	968.017883	-444.154999	213.187866	935.620117	-437.736633	236.597610	984.242432	-431.429382	287.464691	894.080566	-424.243225	367.590759	815.027893	-406.085907	322.769501	706.584412	-436.852814	310.480927	620.815552	-433.008759	295.464081	536.743286	-421.948273	365.887939	614.387085	-406.580963	272.300049	411.002045	-409.693665	225.274796	369.314728	-368.891083	501.473969	379.058136	-370.663696	401.774597	343.192322	-439.226501	-223.012726	893.715515	-248.292450	-12.054577	84.329941	-453.428589	-20.117083	80.621941	-53.440594	
1002	5.0100	507.513153	1325.228394	-116.326843	516.755981	1313.541016	-418.935089	466.356415	1391.113647	-261.066986	465.893097	1228.905151	-261.923767	566.676331	1063.819214	-5.083691	723.845947	852.781128	-53.115215	513.233215	1037.689331	-536.019043	702.416199	881.741638	-438.679626	-63.151932	1172.469116	-222.367126	92.524475	1193.199097	-410.565704	112.549911	1172.858154	-86.589523	93.778976	1138.537720	-392.063629	135.157211	1129.696777	-118.631592	-28.826078	1211.524536	-171.848572	-42.691418	1220.223389	-276.509125	68.743301	1058.668457	-53.010372	40.660019	1062.500122	-432.534668	170.290695	974.604492	-50.321457	236.934280	925.615234	-56.217617	304.146149	866.538757	-69.274300	269.288849	966.656128	-74.771523	355.521851	771.730591	-95.726761	278.102997	685.441833	-64.942978	230.570374	615.488708	-69.809402	175.790253	546.090027	-76.998772	271.293427	587.229248	-104.956276	96.319038	464.043030	-91.688004	133.369370	446.844788	-170.039658	59.301960	485.988556	-147.901031	172.448944	238.786118	-135.033340	96.937065	315.630951	-66.077538	130.768066	963.393677	-444.332520	211.291000	929.172241	-437.540039	235.650955	977.339233	-431.176147	284.717346	886.147400	-423.399963	362.255280	805.679016	-405.636810	317.941101	696.784241	-437.230896	307.187744	610.820862	-433.023712	293.282990	526.839050	-422.803680	362.841156	605.448425	-407.218811	272.306366	400.042847	-409.839172	225.957016	358.347626	-369.129608	502.373718	367.843445	-370.352386	402.506348	332.087280	-439.241180	-223.035385	893.682373	-248.359970	-12.072644	84.318634	-453.363983	-20.123346	80.615715	-53.466595	
1003	5.0150	507.553497	1324.990356	-116.972878	517.275513	1313.015991	-419.177460	466.397827	1390.844849	-261.794617	466.031769	1228.505249	-262.185486	566.149231	1063.538208	-4.731318	723.679260	852.874084	-53.107719	513.529602	1037.535522	-536.812439	702.456909	881.375732	-438.817535	-63.161587	1171.576416	-223.537827	92.216827	1190.694946	-411.855652	112.128212	1173.376343	-87.618835	94.453735	1137.265625	-393.579376	135.152817	1130.294434	-119.465294	-28.983337	1211.211914	-173.338898	-42.492409	1218.998535	-277.913452	69.658279	1060.031616	-53.164768	40.932186	1060.124390	-432.869507	172.964066	977.995361	-50.541237	240.839249	930.564331	-56.564915	309.357513	873.292419	-69.985435	271.914581	972.356140	-76.174919	361.323700	779.173401	-96.428238	282.990723	693.327576	-65.251740	234.390656	624.006104	-70.176361	178.595749	555.457581	-77.378746	274.527771	595.337280	-105.662643	95.718025	475.757263	-90.806229	133.631027	456.979797	-170.455109	59.927155	496.847290	-148.185242	172.211243	249.293533	-135.030014	97.049324	326.548859	-66.130928	129.121613	958.731384	-444.574371	209.111847	922.667725	-437.426300	234.829285	970.662720	-430.258881	281.625031	878.074219	-422.597504	356.720306	796.436096	-405.230743	313.104340	686.965271	-437.840759	303.579132	600.971069	-433.257141	291.454132	516.472961	-421.174286	359.374054	596.564880	-407.783020	271.821960	389.299683	-410.014252	225.992706	347.756653	-369.483978	502.440521	356.887543	-370.691925	402.684540	321.027588	-439.297119	-223.052811	893.682373	-248.426529	-12.051548	84.319031	-453.393555	-20.133242	80.609833	-53.456001	
1004	5.0200	507.567108	1324.800537	-117.383339	517.712219	1312.352905	-419.419464	466.473907	1390.629395	-262.469879	466.134949	1228.047485	-262.481354	565.749023	1063.217773	-4.410643	723.549255	852.985718	-53.087704	514.020569	1037.321045	-537.606567	702.493835	880.968323	-438.933472	-63.052704	1170.795044	-224.891815	92.029556	1188.628174	-413.213684	111.841660	1173.989502	-87.919189	95.061531	1136.186890	-395.107117	135.190567	1130.898071	-120.259331	-29.128450	1210.935059	-174.962479	-42.129528	1218.108521	-279.342621	70.224747	1061.462158	-53.458344	41.257019	1057.842285	-433.322327	175.584488	981.551514	-50.802948	244.680679	935.854248	-57.170139	314.732208	880.182983	-71.465195	274.428772	978.192078	-77.577904	367.151062	786.782959	-97.086845	287.880402	701.278870	-65.606102	238.317566	632.723877	-70.572289	181.473434	565.130005	-77.783875	277.806549	603.682800	-106.398392	96.892387	486.671814	-91.252182	134.439392	467.756775	-170.876205	60.444267	507.690491	-148.429626	172.898727	260.305145	-135.158783	97.755867	337.589935	-66.220154	127.234566	954.076416	-444.867065	206.500839	916.083740	-437.396515	233.147278	963.424622	-430.445831	277.989685	869.991638	-421.871918	351.098877	787.075195	-404.963806	308.153748	677.457214	-438.573578	299.885223	591.242065	-433.608490	288.753326	506.512115	-421.285370	355.728149	587.542053	-408.166687	270.891205	378.704773	-410.260162	225.521698	337.428040	-369.905273	501.964264	345.652130	-370.627075	402.263306	309.950958	-439.303192	-223.048889	893.665222	-248.483582	-12.053320	84.300301	-453.395874	-20.119194	80.619827	-53.474514	
1005	5.0250	507.567871	1324.774780	-117.529396	518.097839	1311.770508	-419.759094	466.573578	1390.383301	-263.161774	466.260376	1227.764526	-262.741608	565.495544	1062.828979	-4.168027	723.380188	853.107605	-53.065891	514.757935	1037.159546	-538.484497	702.601868	880.464172	-439.082825	-62.849819	1170.192993	-226.363785	91.745720	1186.925781	-414.595398	111.333984	1174.601562	-88.929016	92.779846	1134.643188	-394.451416	135.184692	1131.411621	-121.124763	-29.184532	1210.613403	-176.604355	-41.714512	1217.281616	-280.906250	70.634682	1062.902466	-53.738235	41.558964	1055.573730	-433.860229	178.027420	985.192871	-51.283993	248.310745	941.369019	-57.724243	319.634277	887.453613	-72.457069	276.681458	984.222351	-79.049850	372.825928	794.436951	-97.867569	292.921204	709.351807	-65.840179	242.134750	641.723022	-70.994087	184.260193	574.939209	-78.316917	281.005157	612.032532	-106.896172	97.547241	497.816711	-91.488914	135.192719	478.464172	-171.383881	60.810070	518.536194	-148.570145	174.496002	271.803253	-135.098343	98.997673	348.809845	-66.365822	125.095810	949.480164	-445.200165	203.364975	909.355591	-437.309875	230.645477	955.723816	-431.460480	273.848694	861.712402	-421.306824	345.196777	778.113586	-404.940918	304.158539	667.788513	-438.837524	296.119568	581.658325	-434.042786	285.740967	496.876495	-421.856781	351.969421	578.325684	-408.493835	269.528778	368.364563	-410.480438	224.294846	327.630951	-370.527802	501.522736	335.313660	-371.436554	401.212769	298.966461	-439.374634	-223.050415	893.664734	-248.520477	-12.053496	84.280067	-453.407532	-20.156637	80.670059	-53.500504	
